<svg xmlns="http://www.w3.org/2000/svg" xmlns:xlink="http://www.w3.org/1999/xlink" x="0px" y="0px"
	 width="1313.459px" height="1556.922px" viewBox="0 0 1313.459 1556.922" enable-background="new 0 0 1313.459 1556.922"
	 xml:space="preserve">

	 <style>
	 		svg {
	 			background-color: #00363d;
	 			height: 100vh;
	 			width: 100vw;
	 			position: absolute;
	 			top: 0;
	 			left: 0;
	 		}

	 		.filling {
	 			fill: #FFFFFF;
	 			opacity: 0;
	 			animation: filling 3s alternate infinite;
	 			animation-delay: 10.0s;
	 		}

	 		@keyframes filling {
	 			0% { opacity: 0 }
	 			100% { opacity: 0.3}
	 		}


	 		.dot {
	 			fill: #FFFFFF;
	 			animation: dot 3s forwards;
	 			animation-delay: 5s;
	 			opacity: 0;
	 		}

	 		@keyframes dot {
	 			0% { opacity: 0 }
	 			100% { opacity: 1 }
	 		}

	 		.grafic {
	 			stroke: #FFFFFF;
	 			stroke-width: 3px;
	 			stroke-dashoffset: 10000;
	 			stroke-dasharray: 10000;
	 			animation: dash 15s ease-out forwards;
	 		}

	 		@keyframes dash {
	 			0% { stroke-dashoffset: 10000 }
	 			100% { stroke-dashoffset: 0 }
	 		}

	 		.horizontal polygon {
	 			fill: none;
	 			stroke: #FFFFFF;
	 			stroke-dashoffset: 10000;
	 			stroke-dasharray: 10000;
	 			animation: lines 10s infinite;
	 		}

      .vertical path {
      	fill: none;
      	stroke: #FFFFFF; 
      	stroke-dashoffset: 10000;
	 	stroke-dasharray: 10000;
      	animation: lines 15s infinite;
      }

      @keyframes lines {
        0% { stroke-dashoffset: 10000 }
	 	100% { stroke-dashoffset: 0 }
      }

      .delay { animation-delay: 4.0s; }

    </style>
<g>
	<g class="vertical">
		<path d="M2.606,1027.276l0.335,0.135v-40.75l-0.335-0.112V1027.276z M2.606,985.883l0.335,0.112v-82.481
			l-0.335-0.066V985.883z M2.606,902.786l0.335,0.067v-40.91l-0.335-0.045V902.786z M2.606,861.238l0.335,0.045v-40.912
			l-0.335-0.021V861.238z M2.606,819.684l0.335,0.021v-40.908l-0.335-0.001V819.684z M2.606,737.248v40.888h0.335v-40.91
			L2.606,737.248z M2.606,695.699v40.889l0.335-0.023v-40.909L2.606,695.699z M2.606,654.146v40.894l0.335-0.045v-40.916
			L2.606,654.146z M2.606,612.597v40.889l0.335-0.066v-40.912L2.606,612.597z M2.606,571.049v40.889l0.335-0.091v-40.909
			L2.606,571.049z M2.606,529.5v40.888l0.335-0.11v-40.911L2.606,529.5z M2.606,528.822v0.018l0.335-0.135v-0.018L2.606,528.822z"/>
		<path d="M24.33,1036.012l0.358,0.146v-42.184l-0.358-0.119V1036.012z M24.33,993.166l0.358,0.119v-44.127
			l-0.358-0.096V993.166z M24.33,948.38l0.358,0.094v-40.565l-0.358-0.073V948.38z M24.33,907.152l0.358,0.07v-42.348l-0.358-0.049
			V907.152z M24.33,864.144l0.358,0.051v-42.35l-0.358-0.022V864.144z M24.33,778.808v42.323l0.358,0.025v-42.35L24.33,778.808
			L24.33,778.808z M24.33,735.801v42.324l0.358-0.001v-42.347L24.33,735.801z M24.33,692.793v42.325l0.358-0.025v-42.347
			L24.33,692.793z M24.33,649.779v42.33l0.358-0.047v-42.354L24.33,649.779z M24.33,606.773v42.322l0.358-0.07v-42.349
			L24.33,606.773z M24.33,563.768v42.323l0.358-0.096v-42.349L24.33,563.768z M24.33,520.76v42.323l0.358-0.119v-42.349
			L24.33,520.76z M24.33,520.059v0.02l0.358-0.145v-0.02L24.33,520.059z"/>
		<path d="M47.636,1045.382l0.385,0.155v-43.717l-0.385-0.129V1045.382z M47.636,1000.977l0.385,0.13v-45.734
			l-0.385-0.103V1000.977z M47.636,954.562l0.385,0.102v-42.045l-0.385-0.079V954.562z M47.636,911.834l0.385,0.076v-43.889
			l-0.385-0.052V911.834z M47.636,867.262l0.385,0.053v-43.892l-0.385-0.023V867.262z M47.636,778.82v43.863l0.385,0.024V778.82
			H47.636z M47.636,734.249v43.863h0.385v-43.891L47.636,734.249z M47.636,689.676v43.864l0.385-0.026v-43.889L47.636,689.676z
			 M47.636,645.098v43.871l0.385-0.051v-43.896L47.636,645.098z M47.636,600.527v43.862l0.385-0.077v-43.89L47.636,600.527z
			 M47.636,555.955v43.864l0.385-0.104v-43.891L47.636,555.955z M47.636,511.383v43.865l0.385-0.13v-43.89L47.636,511.383z
			 M47.637,510.656L47.637,510.656l-0.001,0.02l0.385-0.154v-0.02L47.637,510.656z"/>
		<path d="M72.7,1055.461l0.414,0.167v-45.369l-0.414-0.139V1055.461z M72.7,1009.379l0.414,0.139v-47.46
			l-0.414-0.11V1009.379z M72.7,961.211l0.414,0.11v-43.634l-0.414-0.084V961.211z M72.7,916.869l0.414,0.083v-45.547L72.7,871.35
			V916.869z M72.7,870.615l0.414,0.055v-45.547l-0.414-0.027V870.615z M72.7,824.354l0.414,0.027v-45.547l-0.414-0.001V824.354z
			 M72.7,732.579V778.1h0.414v-45.549L72.7,732.579z M72.7,686.325v45.521l0.414-0.028V686.27L72.7,686.325z M72.7,640.062v45.526
			l0.414-0.056V639.98L72.7,640.062z M72.7,593.809v45.521l0.414-0.083v-45.547L72.7,593.809z M72.7,547.555v45.521l0.414-0.111
			v-45.547L72.7,547.555z M72.7,501.301v45.52l0.414-0.141v-45.547L72.7,501.301z M72.7,500.545v0.021l0.414-0.167v-0.021
			L72.7,500.545z"/>
		<path d="M99.732,1066.331l0.451,0.181v-47.149l-0.451-0.151V1066.331z M99.732,1018.439l0.451,0.15v-49.325
			l-0.451-0.12V1018.439z M99.732,968.384l0.451,0.118v-45.347l-0.451-0.093V968.384z M99.732,922.301l0.451,0.091v-47.336
			l-0.451-0.062V922.301z M99.732,874.231l0.451,0.06v-47.335l-0.451-0.031V874.231z M99.732,778.849v47.307l0.451,0.03v-47.337
			H99.732L99.732,778.849z M99.732,730.778v47.308l0.451-0.001v-47.337L99.732,730.778z M99.732,682.709v47.307l0.451-0.03V682.65
			L99.732,682.709z M99.732,634.633v47.312l0.451-0.061V634.54L99.732,634.633z M99.732,586.562v47.307l0.451-0.091v-47.337
			L99.732,586.562z M99.732,538.494v47.307l0.451-0.123v-47.335L99.732,538.494z M99.732,490.424v47.308l0.451-0.152v-47.336
			L99.732,490.424z M99.988,489.537l-0.256,0.103v0.021l0.451-0.183v-0.021L99.988,489.537z"/>
		<path d="M128.978,1078.09l0.483,0.193v-49.076l-0.483-0.163V1078.09z M128.978,1028.241l0.483,0.163v-51.341
			l-0.483-0.13V1028.241z M128.978,976.141l0.483,0.128v-47.199l-0.483-0.099V976.141z M128.978,928.176l0.483,0.099v-49.271
			l-0.483-0.065V928.176z M128.978,878.143l0.483,0.065v-49.271l-0.483-0.032V878.143z M128.978,778.864v49.237l0.483,0.033v-49.271
			H128.978z M128.978,728.83v49.239h0.483v-49.271L128.978,728.83z M128.978,678.799v49.238l0.483-0.033v-49.271L128.978,678.799z
			 M128.978,628.759v49.245l0.483-0.066V628.66L128.978,628.759z M128.978,578.725v49.238l0.483-0.098v-49.271L128.978,578.725z
			 M128.978,528.691v49.237l0.483-0.129v-49.271L128.978,528.691z M128.978,478.658v49.238l0.483-0.163v-49.271L128.978,478.658z
			 M128.978,477.843v0.022l0.483-0.197v-0.021L128.978,477.843z"/>
		<path d="M160.707,1090.848l0.526,0.213v-51.168l-0.526-0.178V1090.848z M160.707,1038.879l0.526,0.176v-53.527
			l-0.526-0.141V1038.879z M160.707,984.558l0.526,0.142v-49.212l-0.526-0.106V984.558z M160.707,934.551l0.526,0.107v-51.371
			l-0.526-0.071V934.551z M160.707,882.388l0.526,0.07v-51.37l-0.526-0.035V882.388z M160.707,778.882v51.335l0.526,0.035v-51.37
			H160.707z M160.707,726.718v51.335h0.526v-51.37L160.707,726.718z M160.707,674.554v51.335l0.526-0.034v-51.369L160.707,674.554z
			 M160.707,622.384v51.343l0.526-0.071v-51.377L160.707,622.384z M160.707,570.22v51.335l0.526-0.106V570.08L160.707,570.22z
			 M160.707,518.057v51.336l0.526-0.144v-51.37L160.707,518.057z M160.707,465.893v51.336l0.526-0.179v-51.369L160.707,465.893z
			 M160.707,465.042v0.022l0.526-0.214v-0.021L160.707,465.042z"/>
		<path d="M195.261,1104.741l0.574,0.229v-53.442l-0.574-0.194V1104.741z M195.261,1050.461l0.574,0.192v-55.911
			l-0.574-0.153V1050.461z M195.261,993.724l0.574,0.153v-51.401l-0.574-0.115V993.724z M195.261,941.493l0.574,0.115v-53.656
			l-0.574-0.077V941.493z M195.261,887.009l0.574,0.078v-53.655l-0.574-0.04V887.009z M195.261,778.901v53.616l0.574,0.039v-53.655
			H195.261z M195.261,724.416v53.619h0.574v-53.656L195.261,724.416z M195.261,669.934v53.617l0.574-0.037v-53.655L195.261,669.934z
			 M195.261,615.442v53.626l0.574-0.078v-53.664L195.261,615.442z M195.261,560.958v53.618l0.574-0.115v-53.656L195.261,560.958z
			 M195.261,506.475v53.619l0.574-0.154v-53.656L195.261,506.475z M195.261,451.991v53.618l0.574-0.193V451.76L195.261,451.991z
			 M195.733,450.911l-0.473,0.189v0.023l0.574-0.23v-0.023L195.733,450.911z"/>
		<path d="M233.028,1119.929l0.636,0.255v-55.936l-0.636-0.214V1119.929z M233.028,1063.12l0.636,0.214v-58.515
			l-0.636-0.17V1063.12z M233.028,1003.743l0.636,0.169v-53.797l-0.636-0.128V1003.743z M233.028,949.081l0.636,0.127v-56.154
			l-0.636-0.087V949.081z M233.028,892.062l0.636,0.085v-56.156l-0.636-0.043V892.062z M233.028,778.92v56.114l0.636,0.043V778.92
			H233.028z M233.028,721.901v56.113h0.636v-56.155L233.028,721.901z M233.028,664.881v56.114l0.636-0.043v-56.155L233.028,664.881z
			 M233.028,607.854v56.123l0.636-0.086v-56.164L233.028,607.854z M233.028,550.834v56.114l0.636-0.128v-56.156L233.028,550.834z
			 M233.028,493.815v56.113l0.636-0.172v-56.156L233.028,493.815z M233.028,436.795v56.114l0.636-0.213V436.54L233.028,436.795z
			 M233.657,435.612l-0.629,0.253v0.024l0.636-0.258v-0.022L233.657,435.612z"/>
		<path d="M274.492,1136.601l0.691,0.279v-58.669l-0.691-0.232V1136.601z M274.492,1077.02l0.691,0.231v-61.374
			l-0.691-0.185V1077.02z M274.492,1014.742l0.691,0.185v-56.425l-0.691-0.14V1014.742z M274.492,957.412l0.691,0.14v-58.899
			l-0.691-0.094V957.412z M274.492,897.609l0.691,0.092v-58.899l-0.691-0.046V897.609z M274.492,778.942v58.854l0.691,0.046v-58.899
			H274.492z M274.492,719.14v58.854h0.691v-58.899L274.492,719.14z M274.492,659.336v58.854l0.691-0.048v-58.898L274.492,659.336z
			 M274.492,599.524v58.861l0.691-0.094v-58.908L274.492,599.524z M274.492,539.721v58.854l0.691-0.141v-58.898L274.492,539.721z
			 M274.492,479.918v58.854l0.691-0.188v-58.899L274.492,479.918z M274.492,420.113v58.854l0.691-0.232v-58.898L274.492,420.113z
			 M274.492,419.139v0.025l0.691-0.279v-0.024L274.492,419.139z"/>
		<path d="M320.205,1154.98l0.766,0.308v-61.681l-0.766-0.259V1154.98z M320.205,1092.343l0.766,0.256v-64.526
			l-0.766-0.203V1092.343z M320.205,1026.87l0.766,0.202v-59.321l-0.766-0.155V1026.87z M320.205,966.597l0.766,0.155v-61.927
			l-0.766-0.104V966.597z M320.205,903.724l0.766,0.103v-61.924l-0.766-0.053V903.724z M320.205,778.969v61.873l0.766,0.052v-61.925
			H320.205z M320.205,716.095v61.875h0.766v-61.925L320.205,716.095z M320.205,653.223v61.874l0.766-0.052v-61.924L320.205,653.223z
			 M320.205,590.341v61.883l0.766-0.103v-61.936L320.205,590.341z M320.205,527.468v61.875l0.766-0.155v-61.925L320.205,527.468z
			 M320.205,464.596v61.874l0.766-0.206v-61.926L320.205,464.596z M320.205,401.723v61.874l0.766-0.257v-61.926L320.205,401.723z
			 M320.672,400.509l-0.467,0.188v0.025l0.766-0.31v-0.025L320.672,400.509z"/>
		<path d="M370.863,1175.351l0.852,0.343v-65.021l-0.852-0.284V1175.351z M370.863,1109.323l0.852,0.285v-68.021
			l-0.852-0.228V1109.323z M370.863,1040.309l0.852,0.227v-62.536l-0.852-0.172V1040.309z M370.863,976.775l0.852,0.171v-65.279
			l-0.852-0.113V976.775z M370.863,910.501l0.852,0.112v-65.277l-0.852-0.057V910.501z M370.863,844.217l0.852,0.058v-65.277
			l-0.852-0.001V844.217z M370.863,712.721v65.224l0.852-0.001v-65.278L370.863,712.721z M370.863,646.447v65.221l0.852-0.057
			v-65.277L370.863,646.447z M370.863,580.164v65.229l0.852-0.114v-65.287L370.863,580.164z M370.863,513.89v65.222l0.852-0.171
			v-65.278L370.863,513.89z M370.863,447.615v65.223l0.852-0.229V447.33L370.863,447.615z M370.863,381.342v65.222l0.852-0.286V381
			L370.863,381.342z M371.319,380.076l-0.456,0.184v0.029l0.852-0.344v-0.027L371.319,380.076z"/>
		<path d="M427.318,1198.051l0.949,0.382v-68.743l-0.949-0.32V1198.051z M427.318,1128.248l0.949,0.316v-71.914
			l-0.949-0.253V1128.248z M427.318,1055.285l0.949,0.253v-66.116l-0.949-0.19V1055.285z M427.318,988.117l0.949,0.19v-69.014
			l-0.949-0.13V988.117z M427.318,918.053l0.949,0.127v-69.014l-0.949-0.065V918.053z M427.318,779.026v68.952l0.949,0.062v-69.016
			L427.318,779.026L427.318,779.026z M427.318,708.961v68.953h0.949v-69.016L427.318,708.961z M427.318,638.896v68.951l0.949-0.062
			V638.77L427.318,638.896z M427.318,568.822v68.963l0.949-0.129v-69.025L427.318,568.822z M427.318,498.758v68.951l0.949-0.191
			v-69.016L427.318,498.758z M427.318,428.692v68.951l0.949-0.256v-69.014L427.318,428.692z M427.318,358.629v68.951l0.949-0.319
			v-69.015L427.318,358.629z M427.318,357.485v0.029l0.949-0.384v-0.029L427.318,357.485z"/>
		<path d="M490.631,1223.509l1.068,0.431v-72.919l-1.068-0.359V1223.509z M490.631,1149.468l1.068,0.36v-76.282
			l-1.068-0.285V1149.468z M490.631,1072.08l1.068,0.285v-70.13l-1.068-0.217V1072.08z M490.631,1000.838l1.068,0.215v-73.206
			l-1.068-0.145V1000.838z M490.631,926.521l1.068,0.144v-73.206l-1.068-0.073V926.521z M490.631,779.062v73.136l1.068,0.07v-73.206
			H490.631z M490.631,704.745v73.135h1.068v-73.206L490.631,704.745z M490.631,630.43v73.136l1.068-0.072v-73.206L490.631,630.43z
			 M490.631,556.104v73.146l1.068-0.144v-73.218L490.631,556.104z M490.631,481.787v73.136l1.068-0.217V481.5L490.631,481.787z
			 M490.631,407.471v73.138l1.068-0.288v-73.206L490.631,407.471z M490.631,333.156v73.136l1.068-0.36v-73.205L490.631,333.156z
			 M490.631,331.944v0.031l1.068-0.432v-0.031L490.631,331.944z"/>
		<path d="M562.112,1252.25l1.213,0.487v-77.631l-1.213-0.409V1252.25z M562.112,1173.431l1.213,0.405v-81.215
			l-1.213-0.321V1173.431z M562.112,1091.043l1.213,0.321v-74.663l-1.213-0.246V1091.043z M562.112,1015.199l1.213,0.244v-77.938
			l-1.213-0.163V1015.199z M562.112,936.083l1.213,0.162v-77.938l-1.213-0.082V936.083z M562.112,856.957l1.213,0.081V779.1
			l-1.213-0.001V856.957z M562.112,699.984v77.858l1.213-0.001v-77.938L562.112,699.984z M562.112,620.868v77.858l1.213-0.082
			v-77.938L562.112,620.868z M562.112,541.742v77.87l1.213-0.163v-77.951L562.112,541.742z M562.112,462.627v77.859l1.213-0.245
			v-77.938L562.112,462.627z M562.112,383.513v77.858l1.213-0.326v-77.938L562.112,383.513z M562.112,304.397v77.858l1.213-0.407
			v-77.938L562.112,304.397z M562.986,302.754l-0.874,0.354v0.033l1.213-0.488v-0.034L562.986,302.754z"/>
		<path d="M643.463,1284.96l1.386,0.559v-82.999l-1.386-0.466V1284.96z M643.463,1200.698l1.386,0.464v-86.825
			l-1.386-0.369V1200.698z M643.463,1112.624l1.386,0.367v-79.825l-1.386-0.278V1112.624z M643.463,1031.544l1.386,0.278v-83.326
			l-1.386-0.187V1031.544z M643.463,946.967l1.386,0.187v-83.326l-1.386-0.094V946.967z M643.463,779.144v83.235l1.386,0.092
			v-83.327H643.463L643.463,779.144z M643.463,694.566V777.8l1.386-0.001v-83.325L643.463,694.566z M643.463,609.988v83.234
			l1.386-0.095v-83.324L643.463,609.988z M643.463,525.399v83.245l1.386-0.187V525.12L643.463,525.399z M643.463,440.822v83.232
			l1.386-0.278v-83.325L643.463,440.822z M643.463,356.246v83.232l1.386-0.372v-83.325L643.463,356.246z M643.463,271.668v83.233
			l1.386-0.466V271.11L643.463,271.668z M643.463,270.289v0.037l1.386-0.56v-0.037L643.463,270.289z"/>
		<path d="M736.879,1322.523l1.6,0.643v-89.161l-1.6-0.537V1322.523z M736.879,1232.012l1.6,0.535v-93.271
			l-1.6-0.428V1232.012z M736.879,1137.407l1.6,0.423v-85.751l-1.6-0.324V1137.407z M736.879,1050.314l1.6,0.318v-89.512l-1.6-0.216
			V1050.314z M736.879,959.464l1.6,0.213v-89.512l-1.6-0.109V959.464z M736.879,868.601l1.6,0.106v-89.512l-1.6-0.001V868.601z
			 M736.879,688.344v89.407l1.6-0.001v-89.512L736.879,688.344z M736.879,597.495v89.407l1.6-0.108v-89.513L736.879,597.495z
			 M736.879,506.633v89.42l1.6-0.216v-89.526L736.879,506.633z M736.879,415.783v89.406l1.6-0.322v-89.512L736.879,415.783z
			 M736.879,324.934v89.405l1.6-0.429v-89.512L736.879,324.934z M736.879,234.084v89.407l1.6-0.538v-89.512L736.879,234.084z
			 M737.247,232.454l-0.368,0.147v0.039l1.6-0.645v-0.039L737.247,232.454z"/>
		<path d="M845.279,1366.11l1.863,0.75v-96.312l-1.863-0.628V1366.11z M845.279,1268.348l1.863,0.625v-100.754
			l-1.863-0.498V1268.348z M845.279,1166.161l1.863,0.496v-92.63l-1.863-0.377V1166.161z M845.279,1072.092l1.863,0.376v-96.692
			l-1.863-0.252V1072.092z M845.279,973.964l1.863,0.251v-96.693l-1.862-0.127L845.279,973.964z M845.28,875.822l1.862,0.123
			v-96.691l-1.862-0.001V875.822z M845.28,681.125v96.569l1.862-0.001v-96.691L845.28,681.125z M845.28,582.998v96.568l1.862-0.126
			v-96.692L845.28,582.998z M845.28,484.855v96.582l1.862-0.25V484.48L845.28,484.855z M845.28,386.728v96.569l1.862-0.377v-96.692
			L845.28,386.728z M845.28,288.601v96.569l1.862-0.502v-96.693L845.28,288.601z M845.28,190.473v96.568l1.862-0.627v-96.692
			L845.28,190.473z M845.28,188.871v0.043l1.862-0.752v-0.043L845.28,188.871z"/>
		<path d="M972.541,1417.282l2.203,0.886v-104.712l-2.203-0.741V1417.282z M972.541,1311.006l2.203,0.738v-109.541
			l-2.203-0.587V1311.006z M972.541,1199.922l2.203,0.585V1099.8l-2.203-0.444V1199.922z M972.541,1097.661l2.203,0.442V992.979
			l-2.203-0.297V1097.661z M972.541,990.988l2.203,0.296V886.159l-2.203-0.149V990.988z M972.541,884.301l2.203,0.146V779.324
			l-2.203-0.002V884.301z M972.541,672.648v104.979l2.203-0.001V672.503L972.541,672.648z M972.541,565.977v104.979l2.203-0.149
			V565.684L972.541,565.977z M972.541,459.29v104.993l2.203-0.297V458.846L972.541,459.29z M972.541,352.617v104.978l2.203-0.443
			V352.025L972.541,352.617z M972.541,245.944v104.979l2.203-0.593V245.205L972.541,245.944z M972.541,139.272V244.25l2.203-0.74
			V138.385L972.541,139.272z M972.541,137.532v0.046l2.203-0.889v-0.046L972.541,137.532z"/>
		<path d="M1124.077,1478.214l2.646,1.063v-114.715l-2.646-0.89V1478.214z M1124.077,1361.801l2.646,0.887v-120.005
			l-2.646-0.704V1361.801z M1124.077,1240.122l2.646,0.702v-110.327l-2.646-0.534V1240.122z M1124.077,1128.105l2.646,0.533
			v-115.168l-2.646-0.355V1128.105z M1124.077,1011.26l2.646,0.354V896.447l-2.646-0.178V1011.26z M1124.077,894.396l2.646,0.176
			V779.405l-2.646-0.001V894.396z M1124.077,662.557v114.991l2.646-0.001V662.381L1124.077,662.557z M1124.077,545.71v114.992
			l2.646-0.179V545.356L1124.077,545.71z M1124.077,428.846v115.011l2.646-0.358V428.315L1124.077,428.846z M1124.077,311.998
			V426.99l2.646-0.534V311.29L1124.077,311.998z M1124.077,195.152v114.99l2.646-0.711V194.266L1124.077,195.152z M1124.077,78.305
			v114.992l2.646-0.89V77.24L1124.077,78.305z M1124.077,76.399v0.05l2.646-1.068v-0.049L1124.077,76.399z"/>
	</g>
	<g class="horizontal">
		<polygon points="1126.723,75.381 1124.078,76.448 974.744,136.688 972.541,137.578 847.144,188.162 
			845.28,188.914 738.479,231.996 736.88,232.642 644.849,269.767 643.463,270.326 563.325,302.652 562.111,303.141 491.7,331.545 
			490.631,331.976 428.269,357.131 427.318,357.516 371.715,379.945 370.864,380.289 320.971,400.414 320.205,400.724 
			275.184,418.885 274.491,419.164 233.665,435.633 233.028,435.89 195.835,450.894 195.261,451.125 161.233,464.853 
			160.707,465.064 129.462,477.668 128.978,477.864 100.184,489.479 99.732,489.66 73.114,500.398 72.7,500.564 48.021,510.521 
			47.636,510.676 24.688,519.933 24.331,520.076 2.941,528.705 2.606,528.84 2.366,528.938 2.366,529.598 2.606,529.5 
			2.941,529.365 24.331,520.761 24.688,520.615 47.636,511.383 48.021,511.229 72.7,501.301 73.114,501.133 99.732,490.424 
			100.184,490.242 128.978,478.657 129.462,478.463 160.707,465.893 161.233,465.681 195.261,451.99 195.835,451.76 
			233.028,436.795 233.665,436.539 274.491,420.113 275.184,419.836 320.205,401.723 320.971,401.414 370.864,381.342 
			371.715,380.998 427.318,358.629 428.269,358.246 490.631,333.155 491.7,332.726 562.111,304.397 563.325,303.91 643.463,271.668 
			644.849,271.11 736.88,234.084 738.479,233.441 845.28,190.473 847.144,189.723 972.541,139.271 974.744,138.386 1124.078,78.305 
			1126.723,77.24 1305.684,5.24 1305.684,3.19 		"/>
		<polygon points="1126.723,192.406 1124.078,193.296 974.744,243.51 972.541,244.251 847.144,286.415 
			845.28,287.042 738.479,322.953 736.88,323.49 644.849,354.438 643.463,354.902 563.325,381.849 562.111,382.257 491.7,405.932 
			490.631,406.292 428.269,427.261 427.318,427.58 371.715,446.277 370.864,446.562 320.971,463.339 320.205,463.597 
			275.184,478.734 274.491,478.968 233.665,492.695 233.028,492.91 195.835,505.416 195.261,505.609 161.233,517.05 
			160.707,517.229 129.462,527.734 128.978,527.896 100.184,537.578 99.732,537.73 73.114,546.68 72.7,546.82 48.021,555.119 
			47.636,555.248 24.688,562.964 24.331,563.084 2.941,570.275 2.606,570.388 2.366,570.47 2.366,571.13 2.606,571.049 
			2.941,570.938 24.331,563.767 24.688,563.646 47.636,555.955 48.021,555.826 72.7,547.554 73.114,547.416 99.732,538.494 
			100.184,538.343 128.978,528.691 129.462,528.529 160.707,518.057 161.233,517.879 195.261,506.475 195.835,506.281 
			233.028,493.814 233.665,493.603 274.491,479.917 275.184,479.685 320.205,464.596 320.971,464.339 370.864,447.615 
			371.715,447.33 427.318,428.693 428.269,428.375 490.631,407.472 491.7,407.113 562.111,383.513 563.325,383.107 643.463,356.246 
			644.849,355.781 736.88,324.934 738.479,324.398 845.28,288.601 847.144,287.975 972.541,245.943 974.744,245.205 
			1124.078,195.152 1126.723,194.266 1305.684,134.281 1305.684,132.232 		"/>
		<polygon points="1126.723,309.432 1124.078,310.143 974.744,350.33 972.541,350.923 847.144,384.667 
			845.28,385.17 738.479,413.91 736.88,414.339 644.849,439.107 643.463,439.479 563.325,461.045 562.111,461.371 491.7,480.318 
			490.631,480.607 428.269,497.389 427.318,497.645 371.715,512.607 370.864,512.837 320.971,526.264 320.205,526.471 
			275.184,538.584 274.491,538.771 233.665,549.758 233.028,549.93 195.835,559.938 195.261,560.094 161.233,569.249 
			160.707,569.391 129.462,577.8 128.978,577.93 100.184,585.678 99.732,585.8 73.114,592.962 72.7,593.074 48.021,599.716 
			47.636,599.82 24.688,605.994 24.331,606.091 2.941,611.846 2.606,611.936 2.366,612.001 2.366,612.661 2.606,612.598 
			2.941,612.507 24.331,606.773 24.688,606.678 47.636,600.527 48.021,600.423 72.7,593.809 73.114,593.698 99.732,586.562 
			100.184,586.441 128.978,578.725 129.462,578.596 160.707,570.219 161.233,570.079 195.261,560.958 195.835,560.805 
			233.028,550.834 233.665,550.664 274.491,539.721 275.184,539.535 320.205,527.469 320.971,527.262 370.864,513.889 
			371.715,513.662 427.318,498.758 428.269,498.503 490.631,481.787 491.7,481.5 562.111,462.627 563.325,462.303 643.463,440.822 
			644.849,440.451 736.88,415.783 738.479,415.355 845.28,386.727 847.144,386.229 972.541,352.617 974.744,352.025 
			1124.078,311.999 1126.723,311.29 1305.684,263.321 1305.684,261.271 		"/>
		<polygon points="1126.723,426.456 1124.078,426.99 974.744,457.15 972.541,457.596 847.144,482.92 845.28,483.297 
			738.479,504.867 736.88,505.189 644.849,523.777 643.463,524.057 563.325,540.241 562.111,540.486 491.7,554.706 490.631,554.924 
			428.269,567.518 427.318,567.709 371.715,578.939 370.864,579.11 320.971,589.188 320.205,589.344 275.184,598.434 
			274.491,598.574 233.665,606.821 233.028,606.948 195.835,614.461 195.261,614.576 161.233,621.448 160.707,621.555 
			129.462,627.865 128.978,627.963 100.184,633.778 99.732,633.869 73.114,639.245 72.7,639.328 48.021,644.312 47.636,644.391 
			24.688,649.025 24.331,649.098 2.941,653.417 2.606,653.485 2.366,653.533 2.366,654.193 2.606,654.145 2.941,654.078 
			24.331,649.78 24.688,649.708 47.636,645.098 48.021,645.021 72.7,640.062 73.114,639.98 99.732,634.633 100.184,634.541 
			128.978,628.758 129.462,628.66 160.707,622.383 161.233,622.277 195.261,615.442 195.835,615.326 233.028,607.854 
			233.665,607.727 274.491,599.524 275.184,599.385 320.205,590.342 320.971,590.188 370.864,580.163 371.715,579.992 
			427.318,568.823 428.269,568.631 490.631,556.104 491.7,555.889 562.111,541.742 563.325,541.498 643.463,525.399 
			644.849,525.121 736.88,506.633 738.479,506.311 845.28,484.855 847.144,484.481 972.541,459.29 974.744,458.846 
			1124.078,428.846 1126.723,428.315 1305.684,392.362 1305.684,390.312 		"/>
		<polygon points="1126.723,543.498 1124.078,543.854 974.744,563.986 972.541,564.283 847.144,581.188 
			845.28,581.438 738.479,595.838 736.88,596.053 644.849,608.459 643.463,608.646 563.325,619.449 562.111,619.613 491.7,629.104 
			490.631,629.248 428.269,637.656 427.318,637.785 371.715,645.279 370.864,645.395 320.971,652.121 320.205,652.224 
			275.184,658.293 274.491,658.387 233.665,663.891 233.028,663.977 195.835,668.99 195.261,669.068 161.233,673.654 
			160.707,673.726 129.462,677.938 128.978,678.004 100.184,681.886 99.732,681.945 73.114,685.533 72.7,685.59 48.021,688.916 
			47.636,688.97 24.688,692.062 24.331,692.11 2.941,694.994 2.606,695.039 2.366,695.072 2.366,695.731 2.606,695.699 
			2.941,695.654 24.331,692.793 24.688,692.746 47.636,689.677 48.021,689.625 72.7,686.324 73.114,686.27 99.732,682.709 
			100.184,682.649 128.978,678.799 129.462,678.733 160.707,674.554 161.233,674.483 195.261,669.934 195.835,669.856 
			233.028,664.882 233.665,664.797 274.491,659.336 275.184,659.244 320.205,653.223 320.971,653.121 370.864,646.447 
			371.715,646.334 427.318,638.896 428.269,638.77 490.631,630.43 491.7,630.287 562.111,620.869 563.325,620.707 643.463,609.988 
			644.849,609.805 736.88,597.494 738.479,597.281 845.28,582.998 847.144,582.748 972.541,565.977 974.744,565.683 
			1124.078,545.709 1126.723,545.356 1305.684,521.422 1305.684,519.373 		"/>
		<polygon points="1126.723,660.523 1124.078,660.701 974.744,670.806 972.541,670.956 847.144,679.441 
			845.28,679.566 738.479,686.794 736.88,686.902 644.849,693.13 643.463,693.224 563.325,698.646 562.111,698.729 491.7,703.492 
			490.631,703.564 428.269,707.785 427.318,707.849 371.715,711.611 370.864,711.669 320.971,715.045 320.205,715.097 
			275.184,718.144 274.491,718.191 233.665,720.953 233.028,720.996 195.835,723.513 195.261,723.552 161.233,725.854 
			160.707,725.889 129.462,728.004 128.978,728.037 100.184,729.984 99.732,730.016 73.114,731.816 72.7,731.845 48.021,733.515 
			47.636,733.541 24.688,735.093 24.331,735.117 2.941,736.564 2.606,736.587 2.366,736.605 2.366,737.263 2.606,737.248 
			2.941,737.226 24.331,735.801 24.688,735.777 47.636,734.249 48.021,734.223 72.7,732.58 73.114,732.552 99.732,730.779 
			100.184,730.749 128.978,728.831 129.462,728.799 160.707,726.718 161.233,726.683 195.261,724.417 195.835,724.379 
			233.028,721.9 233.665,721.859 274.491,719.14 275.184,719.094 320.205,716.095 320.971,716.045 370.864,712.721 371.715,712.665 
			427.318,708.962 428.269,708.898 490.631,704.744 491.7,704.674 562.111,699.984 563.325,699.902 643.463,694.566 
			644.849,694.475 736.88,688.345 738.479,688.238 845.28,681.125 847.144,681.002 972.541,672.65 974.744,672.503 
			1124.078,662.557 1126.723,662.382 1305.684,650.463 1305.684,648.412 		"/>
		<polygon points="1126.723,777.547 1124.078,777.548 974.744,777.627 972.541,777.628 847.144,777.694 
			845.28,777.695 738.479,777.75 736.88,777.751 644.849,777.799 643.463,777.8 563.325,777.842 562.111,777.843 491.7,777.88 
			490.631,777.88 428.269,777.913 427.318,777.913 371.715,777.942 370.864,777.943 320.971,777.969 320.205,777.969 
			275.184,777.993 274.491,777.993 233.665,778.015 233.028,778.015 195.835,778.035 195.261,778.035 161.233,778.053 
			160.707,778.053 129.462,778.069 128.978,778.07 100.184,778.084 99.732,778.085 73.114,778.099 72.7,778.099 48.021,778.112 
			47.636,778.112 24.688,778.124 24.331,778.125 2.941,778.136 2.606,778.136 2.366,778.136 2.366,778.795 2.606,778.795 
			2.941,778.796 24.331,778.808 24.688,778.808 47.636,778.82 48.021,778.82 72.7,778.833 73.114,778.834 99.732,778.848 
			100.184,778.848 128.978,778.865 129.462,778.865 160.707,778.882 161.233,778.882 195.261,778.901 195.835,778.901 
			233.028,778.92 233.665,778.92 274.491,778.943 275.184,778.943 320.205,778.968 320.971,778.968 370.864,778.995 
			371.715,778.996 427.318,779.027 428.269,779.027 490.631,779.062 491.7,779.062 562.111,779.099 563.325,779.101 
			643.463,779.145 644.849,779.145 736.88,779.194 738.479,779.195 845.28,779.252 847.144,779.253 972.541,779.322 
			974.744,779.324 1124.078,779.405 1126.723,779.405 1305.684,779.503 1305.684,777.453 		"/>
		<polygon points="2.366,820.334 2.606,820.349 2.941,820.372 24.33,821.821 24.689,821.845 47.636,823.399 
			48.021,823.424 72.7,825.095 73.114,825.123 99.733,826.925 100.183,826.955 128.977,828.905 129.461,828.938 160.707,831.053 
			161.234,831.088 195.26,833.391 195.835,833.431 233.029,835.948 233.664,835.991 274.492,838.755 275.185,838.802 
			320.205,841.849 320.97,841.902 370.864,845.279 371.714,845.337 427.318,849.101 428.269,849.165 490.63,853.386 491.7,853.459 
			562.112,858.226 563.324,858.308 643.463,863.733 644.849,863.826 736.879,870.056 738.479,870.165 845.28,877.395 
			847.145,877.521 972.541,886.01 974.744,886.159 1124.077,896.269 1126.722,896.447 1305.686,908.562 1305.686,906.495 
			1126.722,894.572 1124.077,894.396 974.744,884.447 972.541,884.301 847.145,875.946 845.28,875.823 738.479,868.707 
			736.879,868.601 644.849,862.47 643.463,862.378 563.324,857.039 562.112,856.958 491.7,852.268 490.63,852.197 428.269,848.041 
			427.318,847.979 371.714,844.273 370.864,844.216 320.97,840.894 320.205,840.841 275.185,837.843 274.492,837.797 
			233.664,835.077 233.029,835.035 195.835,832.557 195.26,832.518 161.234,830.252 160.707,830.217 129.461,828.135 
			128.977,828.104 100.183,826.185 99.733,826.154 73.114,824.381 72.7,824.354 48.021,822.709 47.636,822.684 24.689,821.156 
			24.33,821.131 2.941,819.706 2.606,819.683 2.366,819.668 		"/>
		<polygon points="2.366,861.865 2.606,861.898 2.941,861.943 24.33,864.827 24.689,864.875 47.636,867.971 
			48.021,868.021 72.7,871.35 73.114,871.405 99.733,874.994 100.183,875.056 128.977,878.938 129.461,879.003 160.707,883.217 
			161.234,883.287 195.26,887.875 195.835,887.951 233.029,892.968 233.664,893.055 274.492,898.559 275.185,898.652 
			320.205,904.723 320.97,904.826 370.864,911.554 371.714,911.667 427.318,919.164 428.269,919.294 490.63,927.702 491.7,927.848 
			562.112,937.342 563.324,937.505 643.463,948.311 644.849,948.496 736.879,960.905 738.479,961.122 845.279,975.521 
			847.145,975.774 972.541,992.684 974.744,992.979 1124.077,1013.114 1126.722,1013.472 1305.686,1037.604 1305.686,1035.554 
			1126.722,1011.613 1124.077,1011.261 974.744,991.283 972.541,990.988 847.145,974.215 845.279,973.965 738.479,959.678 
			736.879,959.465 644.849,947.152 643.463,946.967 563.324,936.245 562.112,936.084 491.7,926.665 490.63,926.521 428.269,918.18 
			427.318,918.053 371.714,910.614 370.864,910.501 320.97,903.826 320.205,903.724 275.185,897.701 274.492,897.609 
			233.664,892.146 233.029,892.062 195.835,887.087 195.26,887.01 161.234,882.458 160.707,882.389 129.461,878.207 
			128.977,878.143 100.183,874.29 99.733,874.231 73.114,870.671 72.7,870.615 48.021,867.312 47.636,867.262 24.689,864.192 
			24.33,864.145 2.941,861.283 2.606,861.238 2.366,861.205 		"/>
		<polygon points="2.366,903.396 2.606,903.446 2.941,903.514 24.33,907.834 24.689,907.906 47.636,912.541 
			48.021,912.619 72.7,917.604 73.114,917.688 99.733,923.062 100.183,923.155 128.977,928.971 129.461,929.068 160.707,935.38 
			161.234,935.486 195.26,942.358 195.835,942.475 233.029,949.986 233.664,950.114 274.492,958.362 275.185,958.502 
			320.205,967.596 320.97,967.751 370.864,977.827 371.714,977.999 427.318,989.23 428.269,989.422 490.63,1002.019 491.7,1002.234 
			562.112,1016.456 563.324,1016.702 643.463,1032.888 644.849,1033.167 736.879,1051.756 738.479,1052.08 845.279,1073.65 
			847.145,1074.027 972.541,1099.354 974.744,1099.8 1124.077,1129.963 1126.722,1130.498 1305.686,1166.643 1305.686,1164.595 
			1126.722,1128.639 1124.077,1128.105 974.744,1098.104 972.541,1097.661 847.145,1072.468 845.279,1072.092 738.479,1050.634 
			736.879,1050.312 644.849,1031.822 643.463,1031.545 563.324,1015.443 562.112,1015.199 491.7,1001.053 490.63,1000.838 
			428.269,988.308 427.318,988.118 371.714,976.946 370.864,976.775 320.97,966.752 320.205,966.597 275.185,957.552 
			274.492,957.412 233.664,949.209 233.029,949.082 195.835,941.607 195.26,941.493 161.234,934.657 160.707,934.552 
			129.461,928.273 128.977,928.176 100.183,922.392 99.733,922.301 73.114,916.953 72.7,916.869 48.021,911.911 47.636,911.835 
			24.689,907.224 24.33,907.151 2.941,902.854 2.606,902.787 2.366,902.737 		"/>
		<polygon points="3.17,943.427 24.331,949.062 24.688,949.158 47.636,955.269 48.021,955.372 72.7,961.946 
			73.113,962.057 99.732,969.145 100.184,969.266 128.977,976.935 129.462,977.065 160.707,985.387 161.233,985.526 
			195.261,994.589 195.835,994.742 233.028,1004.65 233.664,1004.819 274.492,1015.693 275.184,1015.877 320.205,1027.869 
			320.971,1028.072 370.864,1041.361 371.714,1041.588 427.318,1056.398 428.269,1056.651 490.631,1073.261 491.7,1073.546 
			562.112,1092.3 563.325,1092.622 643.463,1113.967 644.848,1114.336 736.88,1138.849 738.479,1139.274 845.279,1167.721 
			847.144,1168.218 972.541,1201.616 974.744,1202.203 1124.078,1241.979 1126.723,1242.682 1307.571,1290.851 1310.804,1291.712 
			1313.463,1292.42 1313.463,1290.363 1310.804,1289.657 1307.571,1288.8 1126.723,1240.824 1124.078,1240.122 974.744,1200.507 
			972.541,1199.922 847.144,1166.658 845.279,1166.162 738.479,1137.83 736.88,1137.407 644.848,1112.991 643.463,1112.624 
			563.325,1091.364 562.112,1091.043 491.7,1072.365 490.631,1072.08 428.269,1055.537 427.318,1055.285 371.714,1040.534 
			370.864,1040.308 320.971,1027.073 320.205,1026.871 275.184,1014.927 274.492,1014.743 233.664,1003.912 233.028,1003.743 
			195.835,993.877 195.261,993.724 161.233,984.697 160.707,984.558 129.462,976.269 128.977,976.141 100.184,968.502 
			99.732,968.383 73.113,961.322 72.7,961.211 48.021,954.664 47.636,954.562 24.688,948.474 24.331,948.38 3.17,942.766 		"/>
		<polygon points="2.366,986.468 2.606,986.549 2.941,986.662 24.33,993.854 24.689,993.975 47.636,1001.691 
			48.021,1001.819 72.7,1010.121 73.114,1010.26 99.733,1019.21 100.183,1019.361 128.977,1029.044 129.461,1029.207 
			160.707,1039.716 161.234,1039.892 195.26,1051.335 195.835,1051.527 233.029,1064.034 233.664,1064.249 274.492,1077.979 
			275.185,1078.211 320.205,1093.35 320.97,1093.607 370.864,1110.386 371.714,1110.672 427.318,1129.369 428.269,1129.688 
			490.63,1150.66 491.7,1151.02 562.112,1174.697 563.324,1175.105 643.463,1202.054 644.849,1202.52 736.879,1233.468 
			738.479,1234.006 845.279,1269.92 847.145,1270.548 972.541,1312.715 974.744,1313.456 1124.077,1363.674 1126.722,1364.562 
			1305.686,1424.744 1305.686,1422.676 1126.722,1362.688 1124.077,1361.801 974.744,1311.744 972.541,1311.006 847.145,1268.973 
			845.279,1268.348 738.479,1232.548 736.879,1232.012 644.849,1201.163 643.463,1200.698 563.324,1173.836 562.112,1173.43 
			491.7,1149.829 490.63,1149.469 428.269,1128.564 427.318,1128.248 371.714,1109.608 370.864,1109.322 320.97,1092.599 
			320.205,1092.343 275.185,1077.251 274.492,1077.02 233.664,1063.334 233.029,1063.121 195.835,1050.652 195.26,1050.462 
			161.234,1039.055 160.707,1038.879 129.461,1028.404 128.977,1028.241 100.183,1018.591 99.733,1018.439 73.114,1009.518 
			72.7,1009.379 48.021,1001.105 47.636,1000.977 24.689,993.286 24.33,993.166 2.941,985.995 2.606,985.883 2.366,985.803 		"/>
		<polygon fill="#FFFFFF" points="2.366,1028 1305.686,1553.784 1305.686,1551.735 2.366,1027.341 		"/>
	</g>
	<g>
		<g>
			<path class="filling" d="M2.334,1027.484l1307.755,528.046v-128c-5-3-570-559-570-559l-175,149L320.575,715.567L160.088,829.53
				L2.334,612.561"/>
		</g>
		<polyline class="grafic delay" fill="none" points="1310,1427 740,870 565,1015 320,715 160,830 0,610"/>
		<path class="dot" d="M4.668,612.561c0,2.971-1.045,5.377-2.334,5.377S0,615.53,0,612.561c0-2.972,1.045-5.379,2.334-5.379
			S4.668,609.589,4.668,612.561"/>
	</g>
</g>
</svg>
